<svg width="32" height="32" viewBox="0 0 32 32" fill="none" xmlns="http://www.w3.org/2000/svg">
<path d="M0 10C0 4.47715 4.47715 0 10 0H22C27.5228 0 32 4.47715 32 10V22C32 27.5228 27.5228 32 22 32H10C4.47715 32 0 27.5228 0 22V10Z" fill="white"/>
<path d="M12.5095 5.69824C12.7101 6.18675 12.8213 6.72629 12.8213 7.29348C12.8213 9.49607 11.1437 11.2816 9.07416 11.2816C8.54124 11.2816 8.03431 11.1632 7.57531 10.9498V11.2816L24.4375 11.2816V7.57324C24.4375 6.5377 23.598 5.69824 22.5625 5.69824L12.5095 5.69824Z" fill="black"/>
<path d="M12.5095 5.69824C12.7101 6.18675 12.8213 6.72629 12.8213 7.29348C12.8213 9.49607 11.1437 11.2816 9.07416 11.2816C8.54124 11.2816 8.03431 11.1632 7.57531 10.9498V11.2816L24.4375 11.2816V7.57324C24.4375 6.5377 23.598 5.69824 22.5625 5.69824L12.5095 5.69824Z" fill="black"/>
<path d="M12.5095 5.69824C12.7101 6.18675 12.8213 6.72629 12.8213 7.29348C12.8213 9.49607 11.1437 11.2816 9.07416 11.2816C8.54124 11.2816 8.03431 11.1632 7.57531 10.9498V11.2816L24.4375 11.2816V7.57324C24.4375 6.5377 23.598 5.69824 22.5625 5.69824L12.5095 5.69824Z" fill="black"/>
<path d="M9.25 5.6875C10.182 5.6875 10.9375 6.44302 10.9375 7.375C10.9375 8.30698 10.182 9.0625 9.25 9.0625C8.31802 9.0625 7.5625 8.30698 7.5625 7.375C7.5625 6.44302 8.31802 5.6875 9.25 5.6875Z" fill="#FF0000"/>
<path d="M9.15297 26.3125H22.5361C23.5717 26.3125 24.4111 25.473 24.4111 24.4375V20.7431L13.7531 20.7431L8.63644 26.1888C8.79782 26.2574 8.9715 26.3002 9.15297 26.3125Z" fill="black"/>
<path d="M9.15297 26.3125H22.5361C23.5717 26.3125 24.4111 25.473 24.4111 24.4375V20.7431L13.7531 20.7431L8.63644 26.1888C8.79782 26.2574 8.9715 26.3002 9.15297 26.3125Z" fill="black"/>
<path d="M9.15297 26.3125H22.5361C23.5717 26.3125 24.4111 25.473 24.4111 24.4375V20.7431L13.7531 20.7431L8.63644 26.1888C8.79782 26.2574 8.9715 26.3002 9.15297 26.3125Z" fill="black"/>
<path d="M8.0983 25.8208L15.3545 18.0979H22.5361C23.5717 18.0979 24.4111 17.2584 24.4111 16.2229V13.9554H14.1926L7.57531 20.9982L7.57531 24.5215C7.57532 25.0326 7.7761 25.4939 8.0983 25.8208Z" fill="black"/>
<path d="M8.0983 25.8208L15.3545 18.0979H22.5361C23.5717 18.0979 24.4111 17.2584 24.4111 16.2229V13.9554H14.1926L7.57531 20.9982L7.57531 24.5215C7.57532 25.0326 7.7761 25.4939 8.0983 25.8208Z" fill="black"/>
<path d="M8.0983 25.8208L15.3545 18.0979H22.5361C23.5717 18.0979 24.4111 17.2584 24.4111 16.2229V13.9554H14.1926L7.57531 20.9982L7.57531 24.5215C7.57532 25.0326 7.7761 25.4939 8.0983 25.8208Z" fill="black"/>
<path d="M7.57532 11.2817L15.6692 11.2817L7.57532 19.8961L7.57532 11.2817Z" fill="black"/>
<path d="M7.57532 11.2817L15.6692 11.2817L7.57532 19.8961L7.57532 11.2817Z" fill="black"/>
<path d="M7.57532 11.2817L15.6692 11.2817L7.57532 19.8961L7.57532 11.2817Z" fill="black"/>
</svg>
