<svg width="78" height="77" viewBox="0 0 78 77" fill="none" xmlns="http://www.w3.org/2000/svg">
<path d="M33 15C33 6.71573 39.7157 0 48 0C56.2843 0 63 6.71573 63 15C63 23.2843 56.2843 30 48 30C39.7157 30 33 23.2843 33 15Z" fill="white"/>
<path d="M23.6206 39.5134C20.0831 44.4365 18 50.475 18 57C18 60.92 18.7518 64.6644 20.1192 68.0968C21.3888 71.2841 24.6985 73 28.1294 73H32.2341C34.4598 73 36.5697 72.0763 38.6966 71.4204C39.5827 71.1471 40.5242 71 41.5 71H54.5C55.4758 71 56.4173 71.1471 57.3034 71.4204C59.4303 72.0763 61.5402 73 63.7659 73H67.8706C71.3015 73 74.6112 71.2841 75.8808 68.0968C77.2482 64.6644 78 60.92 78 57C78 50.475 75.9169 44.4365 72.3794 39.5134C69.2095 35.1018 63.2767 36.6848 57.2317 38.2978C54.0575 39.1448 50.8524 40 48 40C45.1476 40 41.9425 39.1447 38.7683 38.2978C32.7232 36.6848 26.7905 35.1018 23.6206 39.5134Z" fill="white"/>
<path d="M0 56.5C0 52.3579 3.35786 49 7.5 49H35.5C39.6421 49 43 52.3579 43 56.5C43 60.6421 39.6421 64 35.5 64H7.5C3.35787 64 0 60.6421 0 56.5Z" fill="#16161b"/>
<path d="M21.5 77C17.3579 77 14 73.6421 14 69.5L14 43.5C14 39.3579 17.3579 36 21.5 36C25.6421 36 29 39.3579 29 43.5L29 69.5C29 73.6421 25.6421 77 21.5 77Z" fill="#16161b"/>
<path d="M8 57C8 55.3431 9.34315 54 11 54H32C33.6569 54 35 55.3431 35 57C35 58.6569 33.6569 60 32 60H11C9.34315 60 8 58.6569 8 57Z" fill="white"/>
<path d="M21.5 70.5C19.8431 70.5 18.5 69.1569 18.5 67.5L18.5 46.5C18.5 44.8431 19.8431 43.5 21.5 43.5C23.1569 43.5 24.5 44.8431 24.5 46.5L24.5 67.5C24.5 69.1569 23.1569 70.5 21.5 70.5Z" fill="white"/>
</svg>
