<svg width="72" height="63" viewBox="0 0 72 63" fill="none" xmlns="http://www.w3.org/2000/svg">
<path d="M12.7694 18.2355C12.7694 15.183 16.0313 13.118 18.5434 13.118C23.646 13.118 27.7825 11.2106 27.7825 5.01055C27.7825 2.2433 29.6287 0 31.9061 0H40.9051C43.1826 0 45.0288 2.2433 45.0288 5.01055C45.0288 11.2106 49.1653 13.118 54.2679 13.118C56.648 13.118 59.5808 15.0636 59.5808 17.9557V32.0874C59.5808 40.3542 65.0961 47.0558 71.8996 47.0558C71.9992 47.0558 72.038 47.2105 71.9542 47.276C70.0337 48.779 67.7472 49.651 65.293 49.651L56.4983 49.651C50.1639 49.6509 42.7401 59.4678 36.4056 59.4678C30.0712 59.4678 22.6474 49.6509 16.3129 49.651L5.86117 49.651C3.83431 49.651 1.92178 49.0562 0.235352 48.0024C-0.176241 47.7452 -0.0121766 47.0558 0.45065 47.0558C7.25412 47.0558 12.7694 40.3542 12.7694 32.0874V18.2355Z" fill="white"/>
<path d="M47.4925 49.5984C47.4925 57.0385 42.5288 63 36.4056 63C30.2825 63 25.3187 57.0385 25.3187 49.5984C25.3187 42.1583 30.2825 32.8052 36.4056 32.8052C42.5288 32.8052 47.4925 42.1583 47.4925 49.5984Z" fill="#16161b"/>
<path d="M45.0288 50.7156C45.0288 56.5024 41.1681 59.4678 36.4056 59.4678C31.6432 59.4678 27.7825 56.5024 27.7825 50.7156C27.7825 44.9289 31.6432 40.2378 36.4056 40.2378C41.1681 40.2378 45.0288 44.9289 45.0288 50.7156Z" fill="white"/>
</svg>
