<svg width="65" height="46" viewBox="0 0 65 46" fill="none" xmlns="http://www.w3.org/2000/svg">
<path fill-rule="evenodd" clip-rule="evenodd" d="M53 5C53 2.23858 50.7614 0 48 0H18C15.2386 0 13 2.23858 13 5V5C13 7.76142 10.7614 10 8 10H6.5C2.91015 10 0 12.9102 0 16.5V36C0 41.5228 4.47715 46 10 46H55C60.5228 46 65 41.5228 65 36V16C65 12.6863 62.3137 10 59 10H58C55.2386 10 53 7.76142 53 5V5ZM33 16C26.9249 16 22 20.9249 22 27C22 33.0751 26.9249 38 33 38C39.0751 38 44 33.0751 44 27C44 20.9249 39.0751 16 33 16ZM61 17C61 15.8954 60.1046 15 59 15V15C57.8954 15 57 15.8954 57 17V17C57 18.1046 57.8954 19 59 19V19C60.1046 19 61 18.1046 61 17V17Z" fill="white"/>
</svg>
