<svg width="81" height="55" viewBox="0 0 81 55" fill="none" xmlns="http://www.w3.org/2000/svg">
<path fill-rule="evenodd" clip-rule="evenodd" d="M0 10C0 4.47715 4.47715 0 10 0H71C76.5229 0 81 4.47715 81 10V10C81 12.2526 79.487 14.2243 77.3112 14.8074L42.7414 24.0703C41.2154 24.4792 39.6086 24.4792 38.0826 24.0703L3.73437 14.8667C1.53166 14.2765 0 12.2804 0 10V10ZM41.1731 28.9191C40.6801 29.0512 40.1441 29.0513 39.6511 28.9191V28.9191L11.3294 21.3304C5.61327 19.7987 0 24.106 0 30.0237V45C0 50.5228 4.47715 55 10 55H71C76.5229 55 81 50.5228 81 45V29.9765C81 24.0588 75.3867 19.7516 69.6706 21.2832L41.1731 28.9191V28.9191Z" fill="white"/>
</svg>
