<svg width="70" height="70" viewBox="0 0 70 70" fill="none" xmlns="http://www.w3.org/2000/svg">
<rect width="70" height="70" rx="10" fill="white"/>
<path fill-rule="evenodd" clip-rule="evenodd" d="M59.5091 27.5223C58.4178 27.9991 57.2125 28.2636 55.9454 28.2636C51.0251 28.2636 47.0364 24.2749 47.0364 19.3545C47.0364 18.0875 47.3009 16.8822 47.7777 15.7909L47.0364 15.7909V19.3545V55.8818H56.5091C58.1659 55.8818 59.5091 54.5387 59.5091 52.8818V27.5223Z" fill="black"/>
<path fill-rule="evenodd" clip-rule="evenodd" d="M59.5091 27.5223C58.4178 27.9991 57.2125 28.2636 55.9454 28.2636C51.0251 28.2636 47.0364 24.2749 47.0364 19.3545C47.0364 18.0875 47.3009 16.8822 47.7777 15.7909L47.0364 15.7909V19.3545V55.8818H56.5091C58.1659 55.8818 59.5091 54.5387 59.5091 52.8818V27.5223Z" fill="black"/>
<path fill-rule="evenodd" clip-rule="evenodd" d="M59.5091 27.5223C58.4178 27.9991 57.2125 28.2636 55.9454 28.2636C51.0251 28.2636 47.0364 24.2749 47.0364 19.3545C47.0364 18.0875 47.3009 16.8822 47.7777 15.7909L47.0364 15.7909V19.3545V55.8818H56.5091C58.1659 55.8818 59.5091 54.5387 59.5091 52.8818V27.5223Z" fill="black"/>
<circle cx="56.3909" cy="18.9091" r="4.00909" fill="#FF0000"/>
<path fill-rule="evenodd" clip-rule="evenodd" d="M11.4 19.7948V52.8818C11.4 54.5387 12.7431 55.8818 14.4 55.8818H23.8727V31.0488L11.5464 18.7225C11.4514 19.0638 11.4005 19.4234 11.4 19.7948ZM12.5742 16.9651L31 35.3909V52.8818C31 54.5387 32.3431 55.8818 34 55.8818H40.5139V31.0358L25.2689 15.7909H23.8634H15.4091C14.302 15.7909 13.2997 16.2396 12.5742 16.9651ZM27.7927 15.7909H47.0364V35.0346L27.7927 15.7909Z" fill="black"/>
<path fill-rule="evenodd" clip-rule="evenodd" d="M11.4 19.7948V52.8818C11.4 54.5387 12.7431 55.8818 14.4 55.8818H23.8727V31.0488L11.5464 18.7225C11.4514 19.0638 11.4005 19.4234 11.4 19.7948ZM12.5742 16.9651L31 35.3909V52.8818C31 54.5387 32.3431 55.8818 34 55.8818H40.5139V31.0358L25.2689 15.7909H23.8634H15.4091C14.302 15.7909 13.2997 16.2396 12.5742 16.9651ZM27.7927 15.7909H47.0364V35.0346L27.7927 15.7909Z" fill="black"/>
<path fill-rule="evenodd" clip-rule="evenodd" d="M11.4 19.7948V52.8818C11.4 54.5387 12.7431 55.8818 14.4 55.8818H23.8727V31.0488L11.5464 18.7225C11.4514 19.0638 11.4005 19.4234 11.4 19.7948ZM12.5742 16.9651L31 35.3909V52.8818C31 54.5387 32.3431 55.8818 34 55.8818H40.5139V31.0358L25.2689 15.7909H23.8634H15.4091C14.302 15.7909 13.2997 16.2396 12.5742 16.9651ZM27.7927 15.7909H47.0364V35.0346L27.7927 15.7909Z" fill="black"/>
</svg>
