<svg width="68" height="57" viewBox="0 0 68 57" fill="none" xmlns="http://www.w3.org/2000/svg">
<path d="M11 31C11 33.7614 13.2386 36 16 36H48.9941C50.4084 36 51.7755 36.3317 53 36.9404V42C53 44.7614 50.7614 47 48 47H15.0059C11.7905 47.0001 8.81957 48.7155 7.21191 51.5L5.3457 54.7324C3.84026 57.3397 0.000144032 58.0108 0 55V20C0 17.2386 2.23858 15 5 15H11V31ZM63 0C65.7614 0 68 2.23858 68 5V40C67.9999 43.0108 64.1597 42.3397 62.6543 39.7324L60.7881 36.5C59.1804 33.7155 56.2095 32.0001 52.9941 32H20C17.2386 32 15 29.7614 15 27V5C15 2.23858 17.2386 4.0266e-08 20 0H63Z" fill="white"/>
</svg>
