<svg width="83" height="73" viewBox="0 0 83 73" fill="none" xmlns="http://www.w3.org/2000/svg">
<path fill-rule="evenodd" clip-rule="evenodd" d="M12.3288 12.3288C12.3288 5.51978 17.8485 0 24.6575 0C31.4665 0 36.9863 5.51978 36.9863 12.3288C36.9863 19.1378 31.4665 24.6575 24.6575 24.6575C17.8485 24.6575 12.3288 19.1378 12.3288 12.3288ZM4.61967 32.4767C1.71216 36.5232 0 41.4863 0 46.8493C0 49.7247 0.492188 52.4852 1.39691 55.0511C2.53778 58.2866 5.8761 59.9999 9.30693 59.9999H11.0878C12.573 59.9999 14.0096 59.5684 15.4465 59.1368C16.1628 58.9216 16.8792 58.7065 17.6018 58.5447C18.1531 58.4213 18.7265 58.3561 19.3151 58.3561H30C30.3392 58.3561 30.6732 58.3778 31.001 58.4197C31.0003 58.3439 31 58.268 31 58.192C31 52.5608 32.7978 47.3494 35.8508 43.1006C38.5727 39.3126 43.6548 40.6459 48.8444 42.0305C48.1491 38.5207 46.7089 35.2789 44.6954 32.4767C42.09 28.8508 37.2138 30.1519 32.2452 31.4776C29.6363 32.1738 27.002 32.8767 24.6575 32.8767C22.3131 32.8767 19.6787 32.1738 17.0698 31.4776C12.1013 30.1519 7.22508 28.8508 4.61967 32.4767Z" fill="white"/>
<path fill-rule="evenodd" clip-rule="evenodd" d="M57.6575 13C50.8485 13 45.3288 18.5198 45.3288 25.3288C45.3288 32.1378 50.8485 37.6575 57.6575 37.6575C64.4665 37.6575 69.9863 32.1378 69.9863 25.3288C69.9863 18.5198 64.4665 13 57.6575 13ZM33 59.8493C33 54.4863 34.7122 49.5232 37.6197 45.4767C40.2251 41.8508 45.1013 43.1519 50.0698 44.4776C52.6787 45.1738 55.3131 45.8767 57.6575 45.8767C60.002 45.8767 62.6363 45.1738 65.2452 44.4776C70.2138 43.1519 75.09 41.8508 77.6954 45.4767C80.6029 49.5232 82.3151 54.4863 82.3151 59.8493C82.3151 62.7247 81.8229 65.4852 80.9182 68.0511C79.7773 71.2866 76.439 72.9999 73.0081 72.9999H71.2272C69.742 72.9999 68.3054 72.5684 66.8686 72.1368C66.1522 71.9216 65.4358 71.7065 64.7133 71.5447C64.1619 71.4213 63.5886 71.3561 63 71.3561H52.3151C51.7265 71.3561 51.1531 71.4213 50.6018 71.5447C49.8792 71.7065 49.1628 71.9216 48.4465 72.1368C47.0096 72.5684 45.573 72.9999 44.0878 72.9999H42.3069C38.8761 72.9999 35.5378 71.2866 34.3969 68.0511C33.4922 65.4852 33 62.7247 33 59.8493Z" fill="white"/>
</svg>
