<svg width="81" height="62" viewBox="0 0 81 62" fill="none" xmlns="http://www.w3.org/2000/svg">
<path fill-rule="evenodd" clip-rule="evenodd" d="M81 26.0544C81 23.924 79.8635 21.9555 78.0185 20.8903L42.8492 0.585327C42.1851 0.201872 41.4317 0 40.6648 0V0C39.8979 0 39.1445 0.201872 38.4803 0.585327L3.00577 21.0666C1.14579 22.1404 0 24.125 0 26.2727V26.2727C0 30.9004 5.00962 33.7927 9.01732 31.4789L39.7247 13.75V13.75C40.3392 13.3952 41.1845 13.3952 41.7991 13.75V13.75L72.0555 31.2185C76.0308 33.5137 81 30.6448 81 26.0544V26.0544ZM67 41C67 37.6122 67.1321 31.8401 64.1981 30.1462L45.2619 19.2133C42.4772 17.6056 39.0465 17.6056 36.2618 19.2133L15.7913 31.032C12.8551 32.7273 13 38.6095 13 42V42L13 53.6063C13 58.242 16.758 62 21.3937 62H31.5735C33.0129 62 34 60.4394 34 59V59V46C34 42.134 37.134 39 41 39C44.866 39 48 42.134 48 46V59V59C48 60.4394 48.9871 62 50.4265 62H59.3809C63.5888 62 67 58.5888 67 54.3809V41V41ZM80.9777 39.8339C80.945 39.815 80.9049 39.8429 80.9109 39.8803C80.9695 40.2449 81 40.6189 81 41V39.8725C81 39.8566 80.9915 39.8419 80.9777 39.8339V39.8339Z" fill="white"/>
</svg>
