<svg width="60" height="60" viewBox="0 0 60 60" fill="none" xmlns="http://www.w3.org/2000/svg">
<path fill-rule="evenodd" clip-rule="evenodd" d="M50.0026 0H10C4.47714 0 0 4.47717 0 10V50.0026C0 55.5255 4.47717 60.0026 10 60.0026H50.0026C55.5255 60.0026 60.0026 55.5254 60.0026 50.0026V10C60.0026 4.47714 55.5254 0 50.0026 0ZM5 10C5 7.23858 7.23858 5 10 5H50.0026C52.764 5 55.0026 7.23858 55.0026 10V24.1981C54.9312 24.2197 54.8663 24.2695 54.8251 24.3522C54.7056 24.5915 54.3565 24.5669 54.2719 24.3132L53.5 22.0001C52.6533 17.404 46.1666 17.1358 44.9434 21.6463L44.1594 24.5372C43.1853 28.1293 38.7242 29.3732 36.0319 26.8033C33.5783 24.4612 29.5453 25.254 28.1608 28.3507L27.571 29.67C26.2572 32.6088 22.5491 33.5583 19.9845 31.6128L16.1026 28.6679C14.2401 27.255 11.6471 27.3213 9.85917 28.8275L5.99178 32.0858C5.72677 32.3091 5.32765 32.2588 5.12624 31.9768C5.08811 31.9235 5.04556 31.8793 5 31.8437V10ZM55.0025 50.0349C55.0026 50.0242 55.0026 50.0134 55.0026 50.0026V42.5021V30.0015" fill="white"/>
</svg>
