<svg width="52" height="43" viewBox="0 0 52 43" fill="none" xmlns="http://www.w3.org/2000/svg">
<path fill-rule="evenodd" clip-rule="evenodd" d="M29.8773 3.66116C34.7589 -1.22039 42.6734 -1.22039 47.555 3.66116C52.4365 8.54272 52.4365 16.4573 47.555 21.3388C42.6734 26.2204 34.7589 26.2204 29.8773 21.3388C24.9958 16.4573 24.9958 8.54272 29.8773 3.66116ZM18.4624 29.4624C21.4792 26.4456 26.3708 26.446 29.3876 29.4628C32.4044 32.4796 32.4048 37.3712 29.388 40.388C26.3712 43.4048 21.4796 43.4044 18.4628 40.3876C15.446 37.3708 15.4456 32.4792 18.4624 29.4624ZM8.15106 32.1395C6.28653 30.275 3.26313 30.2754 1.3986 32.1399C-0.465923 34.0045 -0.466339 37.0279 1.39819 38.8924C3.26271 40.7569 6.28612 40.7565 8.15064 38.892C10.0152 37.0274 10.0156 34.004 8.15106 32.1395Z" fill="rgb(212, 30, 30)"/>
</svg>
