<svg width="57" height="57" viewBox="0 0 57 57" fill="none" xmlns="http://www.w3.org/2000/svg">
<path fill-rule="evenodd" clip-rule="evenodd" d="M45.2715 2.51891C44.4905 3.29996 44.4905 4.56629 45.2715 5.34734L50.9284 11.0042C51.7094 11.7852 52.9757 11.7852 53.7568 11.0042L55.6899 9.07107C56.471 8.29002 56.471 7.02369 55.6899 6.24264L50.0331 0.585787C49.252 -0.195262 47.9857 -0.195262 47.2046 0.585786L45.2715 2.51891ZM6.36487 41.4254C5.58382 42.2065 5.58382 43.4728 6.36487 44.2539L12.0217 49.9107C12.8028 50.6918 14.0691 50.6918 14.8502 49.9107L50.1084 14.6525C50.8894 13.8715 50.8894 12.6051 50.1084 11.8241L44.4515 6.16722C43.6705 5.38617 42.4041 5.38617 41.6231 6.16722L6.36487 41.4254ZM0 48.9955C0 48.4651 0.210714 47.9564 0.585786 47.5813L2.82843 45.3386C3.60947 44.5576 4.8758 44.5576 5.65685 45.3386L11.3137 50.9955C12.0948 51.7765 12.0948 53.0429 11.3137 53.8239L9.07107 56.0666C8.69599 56.4416 8.18729 56.6524 7.65685 56.6524H4.24264H2C0.895431 56.6524 0 55.7569 0 54.6524V52.4097V48.9955ZM35.2739 21.0606C34.6881 20.4748 33.7383 20.4748 33.1525 21.0606L14.0607 40.1525C13.4749 40.7383 13.4749 41.688 14.0607 42.2738V42.2738C14.6464 42.8596 15.5962 42.8596 16.182 42.2738L35.2739 23.1819C35.8596 22.5961 35.8596 21.6464 35.2739 21.0606V21.0606Z" fill="white"/>
</svg>
