<svg width="50" height="62" viewBox="0 0 50 62" fill="none" xmlns="http://www.w3.org/2000/svg">
<path fill-rule="evenodd" clip-rule="evenodd" d="M0.939692 20.0142C0.414253 19.961 0 19.5281 0 19C0 18.4719 0.414251 18.039 0.93969 17.9858C9.88552 17.0787 16.9973 9.96568 17.9026 1.01931C17.9602 0.450266 18.428 0 19 0C19.572 0 20.0398 0.450264 20.0974 1.01931C21.0027 9.96568 28.1145 17.0787 37.0603 17.9858C37.5857 18.039 38 18.4719 38 19C38 19.5281 37.5857 19.961 37.0603 20.0142C28.1145 20.9213 21.0027 28.0343 20.0974 36.9807C20.0398 37.5497 19.572 38 19 38C18.428 38 17.9602 37.5497 17.9026 36.9807C16.9973 28.0343 9.88551 20.9213 0.939692 20.0142ZM19.5935 50.6406C19.2617 50.607 19 50.3336 19 50C19 49.6664 19.2617 49.393 19.5935 49.3594C25.2435 48.7865 29.7351 44.2941 30.3069 38.6438C30.3433 38.2844 30.6388 38 31 38C31.3612 38 31.6567 38.2844 31.6931 38.6438C32.2649 44.2941 36.7565 48.7865 42.4065 49.3594C42.7383 49.393 43 49.6664 43 50C43 50.3336 42.7383 50.607 42.4065 50.6406C36.7565 51.2135 32.2649 55.7059 31.6931 61.3562C31.6567 61.7156 31.3612 62 31 62C30.6388 62 30.3433 61.7156 30.3069 61.3562C29.7351 55.7059 25.2435 51.2135 19.5935 50.6406ZM36 31C36 31.1946 36.1526 31.3541 36.3462 31.3737C39.642 31.7079 42.2621 34.3285 42.5957 37.6245C42.6169 37.8341 42.7893 38 43 38C43.2107 38 43.3831 37.8341 43.4043 37.6245C43.7379 34.3285 46.358 31.7079 49.6538 31.3737C49.8474 31.3541 50 31.1946 50 31C50 30.8054 49.8474 30.6459 49.6538 30.6263C46.358 30.2921 43.7379 27.6715 43.4043 24.3755C43.3831 24.1659 43.2107 24 43 24C42.7893 24 42.6169 24.1659 42.5957 24.3755C42.2621 27.6715 39.642 30.2921 36.3462 30.6263C36.1526 30.6459 36 30.8054 36 31Z" fill="#16161b"/>
</svg>
