<svg width="64" height="61" viewBox="0 0 64 61" fill="none" xmlns="http://www.w3.org/2000/svg">
<path d="M22.5669 1.04453C38.8034 -3.30579 55.4934 6.32972 59.8443 22.566C60.3109 24.3076 60.6159 26.0547 60.7693 27.7912C60.9539 29.882 59.4853 31.697 57.4578 32.2401V32.2401C54.1503 33.1261 50.9425 30.2492 50.2212 26.9018C50.1509 26.5756 50.0722 26.2494 49.9849 25.9234C47.1194 15.2315 36.1243 8.87139 25.4321 11.7359C14.7396 14.601 8.39768 25.6069 11.2622 36.2994C14.1274 46.9922 25.1232 53.354 35.8159 50.4889V50.4889C38.8704 49.6703 38.9735 45.834 36.3755 44.031L27.6548 37.9791C25.7461 36.6545 25.2727 34.0334 26.5974 32.1248V32.1248C27.9219 30.2165 30.5426 29.7431 32.4511 31.0674L62.1908 51.7047C64.0996 53.0293 64.5731 55.6505 63.2485 57.5593L62.9606 57.9741C61.795 59.6537 59.4885 60.0704 57.8089 58.9048L50.0929 53.5502C49.8927 53.4113 49.6281 53.5974 49.6912 53.8328V53.8328C49.7178 53.932 49.684 54.0376 49.6042 54.1023C46.3866 56.711 42.5812 58.702 38.3218 59.8434C22.0853 64.1937 5.39523 54.5583 1.04445 38.3219C-3.30579 22.0853 6.33042 5.3952 22.5669 1.04453Z" fill="white"/>
</svg>
