<svg width="60" height="47" viewBox="0 0 60 47" fill="none" xmlns="http://www.w3.org/2000/svg">
<path fill-rule="evenodd" clip-rule="evenodd" d="M1.6307 0C1.87382 0 2.11386 0.0543575 2.33326 0.1591L57.7233 26.6025C58.5633 27.0035 59.219 27.6744 59.6067 28.4825C59.9777 29.2557 59.4561 30.0911 58.6711 30.4365L50.2312 34.1494C49.6458 34.4069 48.9728 34.3688 48.4204 34.0476C48.4158 34.0449 48.4112 34.0422 48.4066 34.0395L33.1233 24.9869L23.5672 19.3265L30.539 27.9529C30.5422 27.9569 30.5454 27.9608 30.5485 27.9648L37.7541 36.8805C38.5826 37.9055 38.2104 39.4376 37.004 39.9683L23.1798 46.0499C22.1908 46.4849 21.0351 46.0559 20.5696 45.0809L0.159132 2.33328C0.0543709 2.11387 0 1.87381 0 1.63067C0 0.730078 0.730106 0 1.6307 0Z" fill="#16161b"/>
</svg>
