<svg width="75" height="73" viewBox="0 0 75 73" fill="none" xmlns="http://www.w3.org/2000/svg">
<path d="M30 15C30 6.71573 36.7157 0 45 0C53.2843 0 60 6.71573 60 15C60 23.2843 53.2843 30 45 30C36.7157 30 30 23.2843 30 15Z" fill="white"/>
<path d="M20.6206 39.5134C17.0831 44.4365 15 50.475 15 57C15 60.92 15.7518 64.6644 17.1192 68.0968C18.3888 71.2841 21.6985 73 25.1294 73H29.2341C31.4598 73 33.5697 72.0763 35.6966 71.4204C36.5827 71.1471 37.5242 71 38.5 71H51.5C52.4758 71 53.4173 71.1471 54.3034 71.4204C56.4303 72.0763 58.5402 73 60.7659 73H64.8706C68.3015 73 71.6112 71.2841 72.8808 68.0968C74.2482 64.6644 75 60.92 75 57C75 50.475 72.9169 44.4365 69.3794 39.5134C66.2095 35.1018 60.2767 36.6848 54.2317 38.2978C51.0575 39.1448 47.8524 40 45 40C42.1476 40 38.9425 39.1447 35.7683 38.2978C29.7232 36.6848 23.7905 35.1018 20.6206 39.5134Z" fill="white"/>
<path d="M0 57C0 52.0294 4.02944 48 9 48H28C32.9706 48 37 52.0294 37 57C37 61.9706 32.9706 66 28 66H9C4.02944 66 0 61.9706 0 57Z" fill="#16161b"/>
<path d="M5 57C5 55.3431 6.34315 54 8 54H29C30.6569 54 32 55.3431 32 57C32 58.6569 30.6569 60 29 60H8C6.34315 60 5 58.6569 5 57Z" fill="white"/>
</svg>
