<svg width="60" height="73" viewBox="0 0 60 73" fill="none" xmlns="http://www.w3.org/2000/svg">
<rect x="15" width="30" height="30" rx="15" fill="white"/>
<path fill-rule="evenodd" clip-rule="evenodd" d="M5.62063 39.5134C2.08313 44.4365 0 50.475 0 57C0 60.92 0.751834 64.6644 2.11917 68.0968C3.38883 71.2841 6.69854 73 10.1294 73H14.2341C16.4598 73 18.5697 72.0763 20.6966 71.4204C21.5827 71.1471 22.5242 71 23.5 71H36.5C37.4758 71 38.4173 71.1471 39.3034 71.4204C41.4303 72.0763 43.5402 73 45.7659 73H49.8706C53.3015 73 56.6112 71.2841 57.8808 68.0968C59.2482 64.6644 60 60.92 60 57C60 50.475 57.9169 44.4365 54.3794 39.5134C51.2095 35.1018 45.2767 36.6848 39.2317 38.2978C36.0575 39.1447 32.8524 40 30 40C27.1476 40 23.9425 39.1447 20.7683 38.2978C14.7232 36.6848 8.79055 35.1018 5.62063 39.5134Z" fill="white"/>
</svg>
